<svg id="Calque_1" xmlns="http://www.w3.org/2000/svg" xmlns:xlink="http://www.w3.org/1999/xlink" viewBox="0 0 143 81.2" style="enable-background:new 0 0 143 81.2"><style>.st0{fill:#1d1d1b}.st1{fill:#000091}.st2{fill:#e1000f}.st3{fill:#9d9d9c}</style><g><g><path class="st0" d="M29.4 78.1c.2.0.5.2.3.7L28.7 79C28.9 78.5 29.2 78.1 29.4 78.1M30.1 79.9h-.2c-.3.3-.6.6-.9.6-.3.0-.5-.2-.5-.6.0-.2.0-.3.1-.5l1.8-.6c.4-.8-.1-1.2-.6-1.2-.9.0-1.9 1.5-1.9 2.7.0.6.3.9.7.9C29.1 81.2 29.7 80.7 30.1 79.9M29.7 77.3l1.3-1.2V76h-.7l-.8 1.3H29.7zM25.8 78.1h.6l-1 2.6c-.1.2.0.5.3.5.6.0 1.4-.5 1.7-1.3h-.2c-.2.3-.7.6-1.1.7l.9-2.5h.9l.1-.4h-.9l.3-1H27l-.6 1-.7.1V78.1zM24.9 78c.1-.2-.1-.4-.2-.4-.5.0-1.2.5-1.4 1.1h.2c.2-.2.5-.5.7-.6l-1 2.6c-.1.2.1.4.2.4.5.0 1.1-.5 1.3-1.1h-.2c-.2.2-.5.5-.7.6L24.9 78zM25.1 76.7c.2.0.4-.2.4-.4s-.2-.4-.4-.4-.4.2-.4.4C24.7 76.5 24.9 76.7 25.1 76.7m-5.8 4c-.1.3.0.5.3.5.2.0.3.0.3-.2l.7-1.9c.3-.4 1-.8 1.3-.8.2.0.2.2.0.4l-1.1 2.1c-.1.2.0.5.3.5.5.0 1.2-.5 1.4-1.1h-.2c-.2.2-.5.5-.7.6l.9-1.9c.1-.2.2-.5.2-.6.0-.3-.2-.5-.5-.5-.5.0-.9.5-1.5 1.2v-.5c0-.4-.1-.7-.4-.7-.2.0-.4.2-.6.4v.1c.3.0.5.5.3 1L19.3 80.7zm0-2.3c.1-.4.1-.8-.3-.8-.4.0-.5.3-.9 1.2v-.5c0-.4-.1-.7-.4-.7-.4.0-.7.6-1 1.1h.2c.2-.3.3-.4.5-.4s.2.2.0.8l-.7 1.6c-.1.3.0.5.3.5.2.0.3.0.3-.2l.7-1.9c.2-.2.4-.5.6-.7H19.3zM15.2 78.1c.2.0.5.2.3.7L14.4 79C14.6 78.5 14.9 78.1 15.2 78.1M15.8 79.9h-.2c-.3.3-.6.6-.9.6s-.5-.2-.5-.6c0-.2.0-.3.1-.5l1.8-.6c.4-.8-.1-1.2-.6-1.2-.9.0-1.9 1.5-1.9 2.7.0.6.3.9.7.9C14.9 81.2 15.4 80.7 15.8 79.9M11.5 78.1h.6l-1 2.6c-.1.2.0.5.3.5.6.0 1.4-.5 1.7-1.3H13c-.2.3-.7.6-1.1.7l.9-2.5h.9l.1-.4h-.9l.3-1h-.4l-.6 1-.7.1V78.1zM8.1 80.2c0-.8.9-1.9 1.4-1.9.1.0.2.0.3.0l-.5 1.4c-.3.4-.8.8-1 .8C8.2 80.5 8.1 80.4 8.1 80.2m2.8-2.7h-.3l-.3.3h-.1c-1.5.0-2.8 1.7-2.8 2.9.0.3.2.5.5.5.4.0.8-.6 1.2-1.2v.2c-.1.6.1.9.5.9s.7-.6 1-1.1h-.2c-.2.3-.3.4-.5.4-.1.0-.2-.3.0-.8L10.9 77.5zM7.7 78.4c.1-.4.1-.8-.3-.8-.4.0-.5.3-.9 1.2v-.5c0-.4-.1-.7-.4-.7-.4.0-.7.6-1 1.1h.2c.2-.3.3-.4.5-.4s.2.2.0.8l-.7 1.6c-.1.3.0.5.3.5.2.0.3.0.3-.2l.7-1.9c.2-.2.4-.5.6-.7H7.7zM2.6 81.1l.1-.2c-.9-.2-1-.2-.6-1.1l.4-1h1c.4.0.4.2.4.7H4l.6-1.6H4.4c-.2.4-.4.7-.9.7h-1L3 77.1c.2-.4.3-.5.8-.5h.4c.6.0.7.2.7.8h.2l.2-1.1H1.8l-.1.2c.7.1.8.2.4 1.1l-.8 2.2c-.3.9-.5 1-1.3 1.1V81.1H2.6z"/><path class="st0" d="M20.6 69.8c.2.0.5.2.3.7l-1.1.3C20 70.2 20.3 69.8 20.6 69.8M21.2 71.6H21c-.3.3-.6.6-.9.6-.3.0-.5-.2-.5-.6.0-.2.0-.3.1-.5l1.8-.6c.4-.8-.1-1.2-.6-1.2-.9.0-1.9 1.5-1.9 2.7.0.6.3.9.7.9C20.3 72.9 20.8 72.4 21.2 71.6M20.8 69l1.3-1.2v-.1h-.7L20.6 69H20.8zM16.9 69.8h.6l-1 2.6c-.1.2.0.5.3.5.6.0 1.4-.5 1.7-1.3h-.2c-.2.3-.7.6-1.1.7l.9-2.5H19l.1-.4h-.9l.3-1h-.4l-.6 1-.7.1V69.8zM16.1 69.7c.1-.2-.1-.4-.2-.4-.5.0-1.2.5-1.4 1.1h.2c.2-.2.5-.5.7-.6l-1 2.6c-.1.2.1.4.2.4.5.0 1.1-.5 1.3-1.1h-.2c-.2.2-.5.5-.7.6L16.1 69.7zM16.2 68.4c.2.0.4-.2.4-.4s-.2-.4-.4-.4-.4.2-.4.4C15.8 68.2 16 68.4 16.2 68.4M12.7 72.3l1.8-4.8-.1-.1-1.2.1v.1l.2.2c.2.2.1.3.0.8L12 72.4c-.1.2.0.5.3.5.5.0 1.1-.5 1.3-1.1h-.2C13.3 72 13 72.3 12.7 72.3M9.2 71.9c0-.8.9-1.9 1.4-1.9.1.0.2.0.3.0l-.5 1.4c-.3.4-.8.8-1 .8C9.3 72.2 9.2 72.1 9.2 71.9M12 69.2h-.3l-.3.3h-.1c-1.5.0-2.8 1.7-2.8 2.9.0.3.2.5.5.5.4.0.8-.6 1.2-1.2v.2c-.1.6.1.9.5.9s.7-.6 1-1.1h-.2c-.2.3-.3.4-.5.4-.1.0-.2-.3.0-.8L12 69.2zM5.2 73.6c0-.4.3-.6.8-.8.2.1.4.2.7.3.5.2.7.2.7.4.0.3-.6.6-1.3.6C5.5 74 5.2 73.9 5.2 73.6M6.6 71.4c-.2.0-.3-.2-.3-.4.0-.6.3-1.5.8-1.5.2.0.3.2.3.4C7.4 70.6 7.1 71.4 6.6 71.4m1.5 1.8c0-.4-.4-.6-1-.8-.5-.2-.8-.2-.8-.4.0-.1.1-.3.3-.4.9.0 1.4-.8 1.4-1.5.0-.1.0-.3-.1-.4h.7l.1-.4H7.7c-.1-.1-.3-.1-.5-.1-.9.0-1.5.8-1.5 1.5.0.5.3.8.7.9-.4.2-.7.4-.7.7.0.2.1.3.2.4-1 .3-1.4.6-1.4 1.1s.6.6 1.3.6C7 74.4 8.1 73.8 8.1 73.2M3.4 70.4c.4.0.4.2.4.7H4l.6-1.6H4.4c-.2.4-.4.7-.9.7h-1L3 68.8c.2-.4.3-.5.8-.5h.4C4.9 68.3 5 68.4 5 69h.2l.2-1H1.8l-.1.2c.7.1.8.2.4 1.1l-.8 2.2c-.3.9-.5 1-1.3 1.1V72.8h4.1l.7-1.2H4.5c-.5.4-1 .9-1.9.9-1.1.0-1 0-.6-1l.4-1.1h1zM3.9 67.6l1.3-.9v-.1H4.5l-.7 1h.1z"/><path class="st0" d="M20.1 61.5c.2.0.5.2.3.7l-1.1.3C19.5 61.9 19.9 61.5 20.1 61.5M20.8 63.4h-.2C20.3 63.7 20 64 19.7 64s-.5-.2-.5-.6c0-.2.0-.3.1-.5l1.8-.6c.4-.8-.1-1.2-.6-1.2-.9.0-1.9 1.5-1.9 2.7.0.6.3.9.7.9C19.8 64.6 20.3 64.2 20.8 63.4M20.4 60.7l1.3-1.2v-.1H21l-.8 1.3H20.4zM16.6 61.5h.5l-1 2.6c-.1.2.0.5.3.5.6.0 1.4-.5 1.7-1.3H18c-.2.3-.7.6-1.1.7l.9-2.5h.9l.1-.4h-.9l.3-1h-.4l-.6 1-.6.1V61.5zM16.1 61.8c.1-.4.1-.8-.3-.8-.4.0-.5.3-.9 1.2v-.5c0-.4-.1-.7-.4-.7-.4.0-.7.6-1 1.1h.2c.2-.3.3-.4.5-.4s.2.2.0.8l-.7 1.6c-.1.3.0.5.3.5.2.0.3.0.3-.2l.7-1.9c.2-.2.4-.5.6-.7H16.1zM12.1 61.5c.2.0.5.2.3.7l-1.1.3C11.5 61.9 11.8 61.5 12.1 61.5m.6 1.9h-.2c-.3.3-.6.6-.9.6s-.5-.2-.5-.6c0-.2.0-.3.1-.5l1.8-.6c.4-.8-.1-1.2-.6-1.2-.9.0-1.9 1.5-1.9 2.7.0.6.3.9.7.9C11.8 64.6 12.3 64.2 12.7 63.4M8.2 64.1c-.2.0-.4-.2-.4-.3.0.0.1-.3.2-.5l.3-.8c.3-.4.8-.8 1.1-.8.2.0.3.1.3.4C9.6 62.8 8.9 64.1 8.2 64.1m2.1-2.3c0-.5-.2-.7-.6-.7-.5.0-.9.5-1.3 1.1l1.1-2.9-.1-.1-1.2.1v.1l.2.2c.2.2.1.3.0.8l-1.2 3.1c-.1.2-.2.5-.2.6.0.3.4.6.8.6C8.8 64.6 10.3 63 10.3 61.8M6.7 61.4C6.7 61.2 6.6 61 6.5 61c-.5.0-1.2.5-1.4 1.1h.2c.2-.2.5-.5.7-.6l-1 2.6c-.1.2.1.4.2.4.5.0 1.1-.5 1.3-1.1H6.3c-.2.2-.5.5-.7.6l1.1-2.6zm.2-1.3c.2.0.4-.2.4-.4.0-.2-.2-.4-.4-.4s-.4.2-.4.4C6.4 59.9 6.6 60.1 6.9 60.1M4.2 59.7H1.8l-.1.2C2.4 60 2.5 60.1 2.2 61l-.8 2.2c-.3.9-.5 1-1.3 1.1L0 64.5h3.7l.8-1.4H4.2c-.5.5-1 1.1-1.8 1.1-.6.0-.7-.1-.4-1L2.8 61c.3-.9.5-1 1.3-1.1L4.2 59.7z"/></g><g><path class="st1" d="M13.6 10.6c.1-.1.3-.3.4-.4h0c.2-.3.5-.5.8-.8C14.9 9.3 15 9.3 15 9.2v-.1c-.1.0-.2.1-.3.2.1-.1.2-.1.2-.2s0 0 0 0c-.3.0-.5.2-.7.3h-.1c-.3.1-.6.4-.9.5-.1.0-.3.1-.4.2-.2.0-.4.0-.6.0-.3.0-.5.1-.8.1-.1.0-.3.1-.4.2s0 0 0 0c0 .1-.1.1-.2.1-.1.1-.3.2-.4.3-.1.1-.2.2-.4.3h-.1s0 0 0 0 0 0 0 0 0-.1.1-.1c0 0 0-.1.1-.1l.1-.1s0 0 0 0 0 0 0 0c.1-.1.2-.2.4-.3s0 0 0 0 0 0 0-.1.0.0.0.0-.1.0-.1.1c-.1.0-.1.1-.2.1s0 0 0 0 0 0 0 0 0 0 0 0 0 0 0 0 0 0 0 0 0 0 0 0 0 0 0 0 0 0 0 0 0 0 0 0 0 0 0-.1.0.0.0.0.0.0.0.0c0-.1.1-.1.2-.1h0c.1.0.2-.1.3-.1-.1.0-.2.1-.4.2s0 0-.1.0.1-.1.1-.1.0.0.0.0c.7-.6 1.7-.4 2.6-.7.1.0.1-.1.2-.1s.2-.2.3-.2c.2-.1.3-.3.4-.5-.3.3-.6.6-1 .7-.5.2-1 .2-1.5.3h.1c0-.1.0-.1.1-.1h.1s0 0 0 0 .1.0.1.0c-.1-.1-.2.1-.3.0.0.0.0-.1.1-.1h.1s0-.1.0-.1c.3-.2.7-.4 1-.5-.1.0-.1.1-.2.0V9c.2-.1.5-.2.7-.3-.1.0-.2.1-.2.0l.1-.1s0 0 0-.1.0.0.0.0.1.0.1-.1h-.1c.1-.1.2-.1.3-.1h-.1s0 0 0 0 0 0 0 0 0-.1.0-.1c.1-.2.1-.4.2-.5-.2.2-.6.3-.9.4h-.1c-.1.0-.3.0-.4.0s-.1-.1-.2-.2c-.2-.1-.4-.2-.6-.3-.6-.2-1.2-.3-1.7-.2.2-.1.5-.1.8-.2.4-.1.7-.2 1.2-.2-.1.0-.2.0-.2.0-.3.0-.6.1-1 .1-.2.0-.4.1-.7.2-.1.0-.2.2-.4.2v-.1C9.5 6.3 9.8 6.1 10.2 6c.4-.1.8.0 1.2.0.3.0.6.1.9.2.1.0.1.2.2.2s.3.0.4.1v-.1c.1-.1.2.0.3.0.2-.1-.2-.3-.2-.5.2.2.3.3.5.5.1.0.4.1.3.0-.1-.2-.3-.5-.5-.7v-.1s0 0-.1.0v-.1c-.1.0-.1-.1-.1-.2-.1-.1.0-.3-.1-.4.0-.1-.1-.2-.1-.4-.1-.4-.2-.7-.2-1.1s.2-.8.5-1.2c.2-.3.3-.5.6-.7.1-.3.2-.5.4-.7.2-.2.5-.4.7-.5C15.3.1 15.6.0 15.6.0H0v12h11c.4-.3.9-.5 1.5-.8C12.8 11.1 13.4 10.8 13.6 10.6zM10.2 9s-.1.0-.1.0c0-.1.2-.1.3-.2.0.0.1-.1.2.0.0.1.1.0.2.1C10.5 9 10.3 8.9 10.2 9zM6.7 8.5S6.7 8.4 6.7 8.5c.3-.5.5-.8.7-1.2.3-.2.5-.4.8-.6.4-.4.8-.8 1.3-1 .2-.1.4.0.6.0C10 5.7 9.8 5.7 9.8 5.8h-.1s0 0 0-.1C9.5 5.9 9.2 6.1 9 6.4 8.8 6.6 8.8 6.9 8.5 6.9c-.1.0.0-.1.0.0C7.7 7.3 7.2 7.9 6.7 8.5zM8.6 7C8.5 7 8.5 7 8.6 7 8.5 7.1 8.5 7.1 8.4 7.1 8.4 7 8.5 6.9 8.6 7 8.6 6.9 8.6 6.9 8.6 7zm1 3.4v.1c-.1.0-.1.1-.2.1s-.1.1-.1.1-.2.0-.1.0c.1-.1.1-.1.2-.2l.1-.1s0 0 0-.1C9.5 10.3 9.6 10.3 9.6 10.4zM9.2 10.2s0 0 0 0C9.1 10.2 9 10.3 9 10.4c-.1.1-.2.1-.3.1s0 0 0 0c-.1.0-.2.1-.2.2s0 0 0 0 0 0 0 0 0 0 0 0 0 0 0 0 0 0 0 0 0 0 0 .1-.1.0.0.0.0.0.0.0.0.0.0.0.0.0.0.0.0.0.0.0-.1.0-.1.1l-.1.1s0 0 0 0 0 0 0 0 0 0 0 0 0 0 0 0 0 0 0 0 0 0 0 0 0 0 0 0 0 0 0 0 0 0 0 0 0 0 0 0 0 0 0 0 0 0 0 0 0 0 0 0 0-.1.1-.1.0.0.0.0.0.0.0.0.0.0.0.0.0-.1.1-.1.0.0.0.0.0.0.0.0.0.0.0.0.0.0.0.0.0.0.0.0.0.0.0.0.0.0.0-.1.0.0.0.0.0.0.0.0.0.0.0.0.0.0.0.0.0.0.0.0.1-.1.1-.1.0.0.0.0-.1.1-.1.1-.1.0.0.0h.1s0 0 0 0 .1-.1.1-.1.0.0.1-.1.0.0.1-.1c.2-.2.6-.2.9-.3.1.0.2.0.4.0.1.0.1.0.2.0C9.6 9.9 9.4 10.1 9.2 10.2zm.5-1.6S9.8 8.6 9.7 8.6c-.1.0-.1-.1-.1-.1-.1.0-.2.1-.4.1C9 8.6 8.9 8.8 8.7 8.8 8.5 8.9 8.3 9.1 8 9.2 8 9.1 8.1 9.1 8.1 9c.2-.2.4-.4.7-.6v-.1C8.8 8.2 9 8.1 9 8 9 8 9.1 7.9 9.2 7.8c0 0-.1.0-.1-.1-.1.0-.2.0-.3.0l.1-.1s0 0-.1.0c0 0 0-.1.1-.1s.2.0.3-.1c-.2.0-.3.0-.5.0C9 7.1 9.2 6.8 9.4 6.7h.1c0 .1-.1.2-.2.2.2.0.4.0.5.1h-.1c.1.1.2.0.4.1-.1.1-.1.0-.2.0.7.2 1.5.4 2 .8-.5.2-1 .4-1.6.5-.1.0-.1.0-.2.0v.1c-.1.0-.2.0-.2.0C9.9 8.6 9.8 8.7 9.7 8.6z"/><g><path class="st2" d="M33 0H20.1s0 0 .1.1.2.1.3.2c.2.1.3.2.4.4.0.1.1.2.1.3C21 1 21 1.2 20.9 1.2c-.1.1-.3.1-.5.0-.1.0-.2.0-.3.0.3.1.7.3.9.6.0.0.1.1.2.1V2s-.1.1-.1.1.0.0.1.0.1-.3.2-.2c.1.1.2.2.1.3-.1.1-.2.2-.3.2.0.0.0.1.0.2.1.1.1.2.1.3.1.2.1.3.2.5.1.3.2.7.2 1 0 .2-.1.3.0.5.0.2.2.3.2.5.1.1.2.2.2.4.1.2.4.5.3.7-.1.2-.3.1-.5.2-.1.1.0.3.0.4.1.2-.1.3-.3.4.0.1.1.0.2.1.0.1.1.2.1.3-.1.1-.4.2-.2.4.1.2.0.3.0.5-.1.2-.2.3-.4.3-.1.0-.3.0-.4.0h-.1C20.4 9.1 20 9 19.6 9c-.1.0-.2.0-.3.1s-.2.2-.3.2.0.0.0.1.0.0.0.0c-.1.1-.1.2-.2.3s0 0 0 0c-.1.1-.1.3-.2.4-.2.5-.1 1 0 1.1.0.0.7.3 1.2.5.2.1.4.2.5.3H33V0z"/></g><path class="st3" d="M20.9 4.4c.1.0.2.0.2.1.0.2-.3.2-.5.4h-.1c-.1.0.0.2-.1.2s-.1.0-.2.0c.1.1.2.2.3.1.0.0.1.0.1.1s0 0 0 0v.1c-.1.1-.2.0-.3.1.2.0.4.0.5.0s0-.3.1-.4V5s.1-.1.1-.1.1.0.1-.1l-.1-.1c.1-.1.2-.2.2-.4.0-.1-.2-.1-.3-.1s-.2.0-.4.0c-.1.0-.2.1-.3.1-.2.0-.3.1-.4.2.2-.1.3-.1.5-.1C20.6 4.4 20.7 4.3 20.9 4.4z"/></g><path class="st0" d="M46.7 15.5h1.9"/></g><g><path class="st0" d="M.1 18h2.3l2.2 3.7L6.7 18H9v9H7.2v-6.4l-2 3.3H3.9l-2-3.3V27H.1V18z"/><path class="st0" d="M11.6 18h1.8v9h-1.8V18z"/><path class="st0" d="M16 18h2.3l4 6.5V18h1.8v9h-2.3l-4-6.5V27H16V18z"/><path class="st0" d="M26.7 18h1.8v9h-1.8V18z"/><path class="st0" d="M31.6 24.5c.5.7 1.3 1.1 2 1.1s1.2-.4 1.2-1c0-1.6-4.1-1.2-4.1-4.3.0-1.4 1.2-2.6 2.9-2.6 1.4.0 2.4.6 3.2 1.5l-1.3 1.2c-.5-.7-1.1-1.1-1.8-1.1-.6.0-1 .4-1 .9.0 1.6 4.1 1.2 4.1 4.3.0 1.7-1.3 2.7-3 2.7-1.5.0-2.6-.6-3.3-1.5L31.6 24.5z"/><path class="st0" d="M37.6 18H45v1.7h-2.8V27h-1.8v-7.4h-2.8V18z"/><path class="st0" d="M46.7 18H52v1.6h-3.4v2.1h2.9v1.6h-2.9v2.3H52V27h-5.3V18zM46.8 15.5h1.9l1.5 1.7h-1.7l-1.7-1.7z"/><path class="st0" d="M54.1 18h2.8c2 0 3.2 1 3.2 2.7.0 1.1-.5 1.9-1.4 2.3l2.8 4h-2.2l-2.4-3.6H56V27h-1.8V18zm1.8 1.6v2.3h1c.8.0 1.2-.4 1.2-1.1.0-.7-.5-1.1-1.2-1.1h-1z"/><path class="st0" d="M62.6 18h5.3v1.6h-3.4v2.1h2.9v1.6h-2.9v2.3h3.4V27h-5.3V18z"/><path class="st0" d="M.1 31h3.5c2.9.0 4.8 2.1 4.8 4.5C8.4 38 6.5 40 3.6 40H.1V31zm1.8 1.7v5.7h1.7c1.7.0 2.9-1.2 2.9-2.8.0-1.6-1.2-2.8-2.9-2.8H1.9z"/><path class="st0" d="M10.2 31h5.3v1.6H12v2.1h2.9v1.6H12v2.3h3.4V40h-5.3V31z"/><path class="st0" d="M21 31h1.8v7.4h3.4V40H21V31z"/><path class="st0" d="M30.6 31H33l3.4 9h-1.9l-.9-2.3H30L29.1 40h-1.9l3.4-9zM33 36.1l-1.2-3.4-1.2 3.4H33z"/><path class="st0" d="M41.7 37.6c.5.7 1.3 1.1 2 1.1s1.2-.4 1.2-1c0-1.6-4.1-1.2-4.1-4.3.0-1.4 1.2-2.6 2.9-2.6 1.4.0 2.4.6 3.2 1.5l-1.3 1.2c-.5-.7-1.1-1.1-1.8-1.1-.6.0-1 .4-1 .9.0 1.6 4.1 1.2 4.1 4.3.0 1.7-1.3 2.7-3 2.7-1.5.0-2.6-.6-3.3-1.5L41.7 37.6z"/><path class="st0" d="M50.9 31h2.4l3.4 9h-1.9l-.9-2.3h-3.6L49.4 40h-1.9l3.4-9zm2.4 5.1-1.2-3.4-1.2 3.4H53.3z"/><path class="st0" d="M58.2 31h2.3l4 6.5V31h1.8v9H64l-4-6.5V40h-1.8V31z"/><path class="st0" d="M68 31h7.4v1.7h-2.8V40h-1.8v-7.4H68V31z"/><path class="st0" d="M77 31h5.3v1.6h-3.4v2.1h2.9v1.6h-2.9v2.3h3.4V40H77V31zM78.8 30.3l1.5-1.7h1.9l-1.7 1.7H78.8z"/><path class="st0" d="M.1 44h5.3v1.6H1.9v2.1h2.9v1.6H1.9v2.3h3.4v1.6H.1V44z"/><path class="st0" d="M6.7 44h7.4v1.7h-2.8v7.4H9.5v-7.4H6.7V44z"/><path class="st0" d="M19.2 44h3.5c2.9.0 4.8 2.1 4.8 4.5S25.6 53 22.7 53h-3.5V44zM21 45.7v5.7h1.7c1.7.0 2.9-1.2 2.9-2.8.0-1.6-1.2-2.8-2.9-2.8H21z"/><path class="st0" d="M29.3 44h5.3v1.6h-3.4v2.1H34v1.6h-2.9v2.3h3.4v1.6h-5.3V44z"/><path class="st0" d="M40.1 44h1.8v7.4h3.4v1.7H40V44z"/><path class="st0" d="M49.7 44h2.4l3.4 9h-1.9l-.9-2.3h-3.6l-.9 2.3h-1.9l3.4-9zm2.4 5.2-1.2-3.4-1.2 3.4H52.1z"/><path class="st0" d="M60.3 44h3c2 0 3.2 1 3.2 2.7s-1.2 2.7-3.2 2.7h-1.1V53h-1.8V44zm1.8 1.6v2.3h1.2c.8.0 1.2-.4 1.2-1.1s-.5-1.1-1.2-1.1H62.1z"/><path class="st0" d="M68 44h2.8c2 0 3.2 1 3.2 2.7.0 1.1-.5 1.9-1.4 2.3l2.8 4h-2.2l-2.4-3.6h-.9V53H68V44zM69.9 45.6v2.3h1c.8.0 1.2-.4 1.2-1.1s-.5-1.1-1.2-1.1h-1z"/><path class="st0" d="M76.6 44h5.3v1.6h-3.4v2.1h2.9v1.6h-2.9v2.3h3.4v1.6h-5.3V44zM78.3 43.3l1.5-1.7h1.9L80 43.3H78.3z"/><path class="st0" d="M84.8 44l2.7 7 2.7-7h1.9l-3.4 9h-2.4l-3.4-9H84.8z"/><path class="st0" d="M93.5 44h5.3v1.6h-3.4v2.1h2.9v1.6h-2.9v2.3h3.4v1.6h-5.3V44z"/><path class="st0" d="M101 44h2.3l4 6.5V44h1.8v9h-2.3l-4-6.5V53H101V44z"/><path class="st0" d="M110.8 44h7.4v1.7h-2.8v7.4h-1.8v-7.4h-2.8V44z"/><path class="st0" d="M119.8 44h1.8v9h-1.8V44z"/><path class="st0" d="M133 48.6c0 2.6-1.9 4.8-4.8 4.8-2.8.0-4.8-2.2-4.8-4.8.0-2.6 1.9-4.8 4.8-4.8C131.1 43.8 133 46 133 48.6zM131.2 48.6c0-1.7-1.2-3.1-2.9-3.1-1.7.0-2.9 1.3-2.9 3.1s1.2 3.1 2.9 3.1C129.9 51.6 131.2 50.3 131.2 48.6z"/><path class="st0" d="M134.8 44h2.3l4 6.5V44h1.8v9h-2.3l-4-6.5V53h-1.8V44z"/></g></svg>